<svg version="1.0" xmlns="http://www.w3.org/2000/svg" width="1445.333" height="1446.667" viewBox="0 0 1084 1085"><path d="M302 189.5V254h-81v157h81v188.7c0 201.4 0 197.9 4.9 218.4 15.2 64 67.3 114.8 132.1 128.7 17.3 3.8 28 4.2 102.1 4.2H613V776h-39.3c-35.9 0-40.1-.2-47.1-2-24-6.1-42.4-25.2-48-49.7-1.4-6.5-1.6-22.4-1.6-160.2V411h136V254H477V125H302v64.5zM753.5 767.6c-27 4.3-49.2 17.2-64.5 37.5-23.5 31.2-26 74.1-6.2 107.4 22 37.1 65.2 54.8 107.6 44.1 29.5-7.5 55.1-30.5 65.5-58.8 4.7-12.8 5.5-17.8 5.6-34.3 0-13.6-.4-17.3-2.3-24.4-4.7-17.4-13.2-32-25.9-44.2-13.2-12.9-28.2-21.2-45.5-25.4-6.3-1.6-28.7-2.8-34.3-1.9z"/></svg>